# xmcd
#
# Track frame offsets:
#	150
#	13396
#	26532
#	42515
#	56734
#	73506
#	88932
#	100537
#	114194
#	125146
#	138460
#	159978
#	171339
#	182295
#	190302
#	205276
#	215423
#	234666
#	246160
#	259381
#	270850
#
# Disc length: 3789 seconds
#
# Revision: 0
# Processed by: cddbd v1.5.2PL0 Copyright (c) Steve Scherf et al.
# Submitted via: audiograbber 1.83.01
#
DISCID=300ecb15
DTITLE=Pap And The Sideman - Heads You Win
DYEAR=2000
DGENRE=Country
TTITLE0=Rosetta
TTITLE1=Near You
TTITLE2=Back Here With Me
TTITLE3=Christmas Cookies 2
TTITLE4=Country Medly 
TTITLE5=Deed I Do
TTITLE6=Don't Change the Rose
TTITLE7=I Do
TTITLE8=Sweet Georgia Brown
TTITLE9=Goodmornin' Heart Ache
TTITLE10=I Can't Stop Lovin' You
TTITLE11=I Love You So Much It Hurts Me
TTITLE12=I'll Never Find Anouther You
TTITLE13=Kiss Me Once
TTITLE14=Once In A While
TTITLE15=Opus 1 
TTITLE16=Sept In the Rain
TTITLE17=Sunday Dwn Tennesse
TTITLE18=Take Me In Your Arms
TTITLE19=The Song Is Ended
TTITLE20=Undecided
EXTD=
EXTT0=
EXTT1=
EXTT2=
EXTT3=
EXTT4=
EXTT5=
EXTT6=
EXTT7=
EXTT8=
EXTT9=
EXTT10=
EXTT11=
EXTT12=
EXTT13=
EXTT14=
EXTT15=
EXTT16=
EXTT17=
EXTT18=
EXTT19=
EXTT20=
PLAYORDER=
